<svg width="34" height="34" viewBox="0 0 34 34" fill="none" xmlns="http://www.w3.org/2000/svg">
<rect width="34" height="34" fill="#00B3B0"/>
<path fill-rule="evenodd" clip-rule="evenodd" d="M6 6.95093C6 5.87346 6.86191 5 7.92513 5H25.2513C26.3145 5 27.1765 5.87346 27.1765 6.95093V24.5093C27.1765 25.5868 26.3145 26.4602 25.2513 26.4602H14.0245L11.1492 28.8661C10.776 29.1785 10.2125 28.9094 10.2125 28.4189V26.4602H7.92513C6.86191 26.4602 6 25.5868 6 24.5093V6.95093ZM10.211 8.54572H19.4661C21.4648 8.54572 23.0853 10.1878 23.0853 12.2134C23.0853 13.8366 22.0448 15.2135 20.6028 15.6965C22.2888 16.009 23.5666 17.5053 23.5666 19.3043C23.5666 21.3299 21.9463 22.9719 19.9475 22.9719H10.2111V15.8811L10.211 8.54572ZM17.9082 11.8462H13.5796V14.0468H17.9082C18.5079 14.0468 18.994 13.5542 18.994 12.9465C18.994 12.3388 18.5079 11.8462 17.9082 11.8462ZM13.5796 16.7365H18.2689C18.9351 16.7365 19.4753 17.2839 19.4753 17.9592C19.4753 18.6343 18.9351 19.1817 18.2689 19.1817H13.5796V16.7365Z" fill="#ffffff"/>
</svg>
 