<svg viewBox="0 0 220 220"><g fill="#FFF"><path d="M89.6 56.8c5 5 7 12.3 5 19a39.4 39.4 0 0 1 20.4-5.6h.2c10.5 0 20.6 4.3 28 11.8a15.6 15.6 0 1 0 22.2-22 70.8 70.8 0 0 0-50.1-21h-.3a70.6 70.6 0 0 0-39.6 12h.4c5.2 0 10.2 2.1 13.8 5.8Zm64.4 76.9c-4 0-8 1.6-11 4.5a39.7 39.7 0 0 1-28 11.6h-.1a39.4 39.4 0 0 1-20.4-5.8 19.6 19.6 0 0 1-18.8 24.8h-.5a70.6 70.6 0 0 0 39.6 12.2h.3a71 71 0 0 0 50-20.6c6-6 6.1-16 0-22a15.6 15.6 0 0 0-11-4.7Zm-92.2 1.7a19.4 19.4 0 0 1 19.1-5 39.6 39.6 0 0 1 .1-41 19.5 19.5 0 0 1-24.7-18.8V70a71 71 0 0 0-.2 79.7v-.5a19.4 19.4 0 0 1 5.7-13.8Z"/><path d="M75.8 54.5c-4.4 0-7.5 1.8-11.3 5.6a13.7 13.7 0 0 0-4.7 10.5 16 16 0 1 0 16-16Zm-16.2 94.8c0 4.4 1.8 7.5 5.6 11.3 3.5 3.6 6.7 4.7 10.4 4.7a16 16 0 1 0-16-16Z"/></g></svg>